<svg width="17" height="17" viewBox="0 0 17 17" fill="none" xmlns="http://www.w3.org/2000/svg">
<mask id="path-1-inside-1_11_354" fill="white">
<path fill-rule="evenodd" clip-rule="evenodd" d="M12.8966 13.8359C15.0227 12.4627 16.4138 10.1813 16.4138 7.59898C16.4138 3.40218 12.7394 0 8.2069 0C3.67435 0 0 3.40218 0 7.59898C0 11.7958 3.67435 15.198 8.2069 15.198C8.68737 15.198 9.1582 15.1597 9.61603 15.0864L12.8966 17V13.8359Z"/>
</mask>
<path d="M12.8966 13.8359L12.354 12.9959L11.8966 13.2913V13.8359H12.8966ZM9.61603 15.0864L10.1199 14.2226L9.81097 14.0424L9.45783 14.099L9.61603 15.0864ZM12.8966 17L12.3927 17.8638L13.8966 18.7411V17H12.8966ZM15.4138 7.59898C15.4138 9.80602 14.2263 11.7866 12.354 12.9959L13.4391 14.6759C15.8191 13.1388 17.4138 10.5565 17.4138 7.59898H15.4138ZM8.2069 1C12.261 1 15.4138 4.02554 15.4138 7.59898H17.4138C17.4138 2.77882 13.2179 -1 8.2069 -1V1ZM1 7.59898C1 4.02554 4.15277 1 8.2069 1V-1C3.19593 -1 -1 2.77882 -1 7.59898H1ZM8.2069 14.198C4.15277 14.198 1 11.1724 1 7.59898H-1C-1 12.4191 3.19593 16.198 8.2069 16.198V14.198ZM9.45783 14.099C9.0522 14.164 8.63427 14.198 8.2069 14.198V16.198C8.74047 16.198 9.2642 16.1555 9.77424 16.0738L9.45783 14.099ZM13.4004 16.1362L10.1199 14.2226L9.11216 15.9502L12.3927 17.8638L13.4004 16.1362ZM11.8966 13.8359V17H13.8966V13.8359H11.8966Z" fill="#96A5B3" mask="url(#path-1-inside-1_11_354)"/>
</svg>
