<svg width="18" height="19" viewBox="0 0 18 19" fill="none" xmlns="http://www.w3.org/2000/svg">
<path d="M1.57087 8.77701C1.53277 8.31444 1.8782 7.91675 2.31805 7.91675H3.75C4.16423 7.91675 4.5 8.27118 4.5 8.70841V16.2292C4.5 16.6665 4.16423 17.0209 3.75 17.0209H2.93761C2.54858 17.0209 2.22413 16.7069 2.19043 16.2978L1.57087 8.77701Z" stroke="#96A5B3" stroke-linecap="round" stroke-linejoin="round"/>
<path d="M6.75 8.46082C6.75 8.13002 6.94477 7.83394 7.22824 7.69291C7.84642 7.3853 8.89984 6.76638 9.375 5.92986C9.98741 4.85177 10.1029 2.9039 10.1217 2.45772C10.1243 2.39527 10.1226 2.33273 10.1308 2.2708C10.2323 1.4981 11.6454 2.40078 12.1875 3.35521C12.4817 3.8732 12.5195 4.55375 12.4885 5.08508C12.4554 5.65357 12.2975 6.20275 12.1426 6.74837L11.8125 7.91061H15.8838C16.3812 7.91061 16.7408 8.41225 16.6056 8.91745L14.5917 16.4444C14.5005 16.7854 14.2057 17.0209 13.87 17.0209H7.5C7.08578 17.0209 6.75 16.6665 6.75 16.2292V8.46082Z" stroke="#96A5B3" stroke-linecap="round" stroke-linejoin="round"/>
</svg>
